<svg width="22" height="22" viewBox="0 0 22 22" fill="none" xmlns="http://www.w3.org/2000/svg">
<path fill-rule="evenodd" clip-rule="evenodd" d="M12.7929 12.2638C11.361 13.6957 9.03939 13.6957 7.60747 12.2638C6.17555 10.8319 6.17555 8.51027 7.60747 7.07835C9.03939 5.64643 11.361 5.64643 12.7929 7.07835C14.2248 8.51027 14.2248 10.8319 12.7929 12.2638ZM13.2333 13.6468C11.2731 15.1462 8.45749 14.9994 6.66466 13.2066C4.71204 11.254 4.71204 8.08816 6.66466 6.13554C8.61728 4.18292 11.7831 4.18292 13.7357 6.13554C15.5285 7.92829 15.6753 10.7437 14.1761 12.7039L17.7428 16.2706L16.8 17.2134L13.2333 13.6468Z" fill="#A0A0A0"/>
</svg>
